<svg width="55" height="23" viewBox="0 0 55 23" fill="none" xmlns="http://www.w3.org/2000/svg">
<path d="M1.63281 10.3618C0.804386 10.3618 0.132813 11.0334 0.132812 11.8618C0.132812 12.6902 0.804385 13.3618 1.63281 13.3618L1.63281 10.3618ZM54.0167 12.9225C54.6025 12.3367 54.6025 11.3869 54.0167 10.8012L44.4708 1.25522C43.885 0.669432 42.9352 0.669432 42.3495 1.25522C41.7637 1.841 41.7637 2.79075 42.3495 3.37654L50.8347 11.8618L42.3495 20.3471C41.7637 20.9329 41.7637 21.8826 42.3495 22.4684C42.9352 23.0542 43.885 23.0542 44.4708 22.4684L54.0167 12.9225ZM1.63281 13.3618L52.9561 13.3618L52.9561 10.3618L1.63281 10.3618L1.63281 13.3618Z" fill="#BEBEBE"/>
</svg>
