<svg width="34" height="34" viewBox="0 0 34 34" fill="none" xmlns="http://www.w3.org/2000/svg">
<path d="M17.0002 13.75C15.2053 13.75 13.7502 15.2051 13.7502 17C13.7502 18.795 15.2053 20.25 17.0002 20.25C18.7951 20.25 20.2502 18.795 20.2502 17C20.2502 15.2051 18.7951 13.75 17.0002 13.75Z" fill="white"/>
<path fill-rule="evenodd" clip-rule="evenodd" d="M11.7697 8.08151C15.2178 7.69614 18.7825 7.69614 22.2307 8.08151C24.1291 8.29369 25.6603 9.78947 25.8831 11.6945C26.2954 15.2195 26.2954 18.7806 25.8831 22.3056C25.6603 24.2106 24.1291 25.7064 22.2307 25.9186C18.7825 26.304 15.2178 26.304 11.7697 25.9186C9.87132 25.7064 8.34013 24.2106 8.11732 22.3056C7.70504 18.7806 7.70504 15.2195 8.11732 11.6945C8.34013 9.78947 9.87132 8.29369 11.7697 8.08151ZM22.0002 11C21.4479 11 21.0002 11.4478 21.0002 12C21.0002 12.5523 21.4479 13 22.0002 13C22.5525 13 23.0002 12.5523 23.0002 12C23.0002 11.4478 22.5525 11 22.0002 11ZM12.2502 17C12.2502 14.3767 14.3768 12.25 17.0002 12.25C19.6235 12.25 21.7502 14.3767 21.7502 17C21.7502 19.6234 19.6235 21.75 17.0002 21.75C14.3768 21.75 12.2502 19.6234 12.2502 17Z" fill="white"/>
<circle cx="17" cy="17" r="15.6" stroke="white" stroke-width="1.2"/>
</svg>
