<svg width="34" height="34" viewBox="0 0 34 34" fill="none" xmlns="http://www.w3.org/2000/svg">
<circle cx="17" cy="17" r="15.6" stroke="white" stroke-width="1.2"/>
<path d="M12.3125 8.65625C11.4323 8.65625 10.7188 9.3698 10.7188 10.25C10.7188 11.1302 11.4323 11.8438 12.3125 11.8438C13.1927 11.8438 13.9062 11.1302 13.9062 10.25C13.9062 9.3698 13.1927 8.65625 12.3125 8.65625Z" fill="white"/>
<path d="M10.8125 13.1562C10.7607 13.1562 10.7188 13.1982 10.7188 13.25V23C10.7188 23.0518 10.7607 23.0938 10.8125 23.0938H13.8125C13.8643 23.0938 13.9062 23.0518 13.9062 23V13.25C13.9062 13.1982 13.8643 13.1562 13.8125 13.1562H10.8125Z" fill="white"/>
<path d="M15.6875 13.1562C15.6357 13.1562 15.5938 13.1982 15.5938 13.25V23C15.5938 23.0518 15.6357 23.0938 15.6875 23.0938H18.6875C18.7393 23.0938 18.7812 23.0518 18.7812 23V17.75C18.7812 17.377 18.9294 17.0194 19.1931 16.7556C19.4569 16.4919 19.8145 16.3438 20.1875 16.3438C20.5605 16.3438 20.9181 16.4919 21.1819 16.7556C21.4456 17.0194 21.5938 17.377 21.5938 17.75V23C21.5938 23.0518 21.6357 23.0938 21.6875 23.0938H24.6875C24.7393 23.0938 24.7812 23.0518 24.7812 23V16.5352C24.7812 14.7151 23.1983 13.2912 21.3874 13.4559C20.8289 13.5066 20.2767 13.6455 19.7611 13.8665L18.7812 14.2864V13.25C18.7812 13.1982 18.7393 13.1562 18.6875 13.1562H15.6875Z" fill="white"/>
</svg>
