<svg width="37" height="37" viewBox="0 0 37 37" fill="none" xmlns="http://www.w3.org/2000/svg">
<path d="M36.2846 33.042L29.4096 26.1871C31.6278 23.3612 32.8314 19.8715 32.8269 16.2789C32.8269 13.0795 31.8782 9.95191 30.1006 7.29168C28.3231 4.63144 25.7967 2.55805 22.8408 1.33367C19.8849 0.109304 16.6323 -0.211047 13.4944 0.413132C10.3564 1.03731 7.47401 2.57799 5.21167 4.84033C2.94932 7.10267 1.40865 9.98507 0.784469 13.123C0.160291 16.261 0.480642 19.5136 1.70501 22.4695C2.92938 25.4254 5.00278 27.9518 7.66301 29.7293C10.3232 31.5068 13.4508 32.4556 16.6503 32.4556C20.2428 32.46 23.7325 31.2564 26.5585 29.0382L33.4133 35.9133C33.6013 36.1028 33.8249 36.2533 34.0713 36.3559C34.3177 36.4586 34.582 36.5114 34.849 36.5114C35.1159 36.5114 35.3802 36.4586 35.6266 36.3559C35.873 36.2533 36.0967 36.1028 36.2846 35.9133C36.4742 35.7253 36.6246 35.5017 36.7273 35.2553C36.8299 35.0089 36.8828 34.7446 36.8828 34.4776C36.8828 34.2107 36.8299 33.9464 36.7273 33.7C36.6246 33.4536 36.4742 33.2299 36.2846 33.042ZM4.5178 16.2789C4.5178 13.8794 5.22935 11.5337 6.56249 9.53849C7.89562 7.54332 9.79045 5.98827 12.0074 5.06999C14.2243 4.15171 16.6637 3.91145 19.0172 4.37958C21.3707 4.84772 23.5325 6.00322 25.2292 7.69998C26.926 9.39673 28.0815 11.5585 28.5496 13.912C29.0178 16.2655 28.7775 18.7049 27.8592 20.9218C26.9409 23.1387 25.3859 25.0336 23.3907 26.3667C21.3955 27.6998 19.0498 28.4114 16.6503 28.4114C13.4325 28.4114 10.3466 27.1332 8.07132 24.8579C5.79604 22.5826 4.5178 19.4967 4.5178 16.2789Z" fill="#696969"/>
</svg>
