<svg width="21" height="21" viewBox="0 0 21 21" fill="none" xmlns="http://www.w3.org/2000/svg">
<path fill-rule="evenodd" clip-rule="evenodd" d="M20.1636 4.5468C20.6778 5.78806 20.6778 7.36164 20.6778 10.5088C20.6778 13.656 20.6778 15.2295 20.1636 16.4708C19.4781 18.1258 18.1632 19.4407 16.5082 20.1263C15.2669 20.6404 13.6933 20.6404 10.5462 20.6404H7.16895C3.9849 20.6404 2.39287 20.6404 1.40371 19.6512C0.414551 18.6621 0.414551 17.0701 0.414551 13.886V10.5088C0.414551 7.36164 0.414551 5.78806 0.928699 4.5468C1.61423 2.89178 2.92914 1.57688 4.58415 0.891345C5.82542 0.377197 7.399 0.377197 10.5462 0.377197C13.6933 0.377197 15.2669 0.377197 16.5082 0.891345C18.1632 1.57688 19.4781 2.89178 20.1636 4.5468ZM6.04663 8.25696C6.04663 7.63523 6.55064 7.13123 7.17236 7.13123H13.9268C14.5485 7.13123 15.0525 7.63523 15.0525 8.25696C15.0525 8.87868 14.5485 9.38269 13.9268 9.38269H7.17236C6.55064 9.38269 6.04663 8.87868 6.04663 8.25696ZM6.04663 12.7599C6.04663 12.1382 6.55064 11.6342 7.17236 11.6342H10.5496C11.1713 11.6342 11.6753 12.1382 11.6753 12.7599C11.6753 13.3816 11.1713 13.8856 10.5496 13.8856H7.17236C6.55064 13.8856 6.04663 13.3816 6.04663 12.7599Z" fill="#929292"/>
</svg>
