<svg width="18" height="20" viewBox="0 0 18 20" fill="none" xmlns="http://www.w3.org/2000/svg">
<g clip-path="url(#clip0_125_255)">
<path d="M13.3341 7.20179C14.6223 8.12213 16.2003 8.66365 17.9047 8.66365V5.38572C17.5821 5.38579 17.2604 5.35213 16.9448 5.28531V7.86551C15.2406 7.86551 13.6627 7.32406 12.3743 6.40379V13.0932C12.3743 16.4396 9.66012 19.1521 6.31226 19.1521C5.06309 19.1521 3.90198 18.7747 2.9375 18.1273C4.03833 19.2523 5.5735 19.9502 7.27184 19.9502C10.62 19.9502 13.3343 17.2376 13.3343 13.8911V7.20179H13.3341ZM14.5183 3.89475C13.8599 3.17593 13.4276 2.24696 13.3341 1.21993V0.79834H12.4245C12.6535 2.10365 13.4345 3.21882 14.5182 3.89475H14.5183ZM5.05502 15.5594C4.68722 15.0775 4.4884 14.4878 4.48929 13.8815C4.48929 12.351 5.73074 11.1101 7.2624 11.1101C7.54779 11.1099 7.83151 11.1537 8.10357 11.2399V7.88868C7.78564 7.84517 7.46481 7.82662 7.14412 7.83344V10.4419C6.87193 10.3556 6.58807 10.3118 6.30253 10.3121C4.77095 10.3121 3.52957 11.5529 3.52957 13.0836C3.52957 14.1659 4.15005 15.103 5.05502 15.5594Z" fill="white"/>
<path d="M12.3745 6.40372C13.663 7.324 15.2407 7.86544 16.945 7.86544V5.28524C15.9937 5.08268 15.1515 4.58586 14.5184 3.89475C13.4346 3.21875 12.6537 2.10358 12.4247 0.79834H10.0355V13.891C10.0301 15.4173 8.79079 16.6532 7.26244 16.6532C6.36189 16.6532 5.56175 16.2241 5.05506 15.5594C4.15024 15.103 3.52969 14.1659 3.52969 13.0836C3.52969 11.5531 4.77106 10.3121 6.30265 10.3121C6.5961 10.3121 6.87893 10.3578 7.14424 10.4419V7.83351C3.85513 7.90144 1.20996 10.5875 1.20996 13.891C1.20996 15.5401 1.86865 17.0351 2.93775 18.1274C3.90224 18.7747 5.06327 19.1523 6.31251 19.1523C9.66044 19.1523 12.3746 16.4395 12.3746 13.0932V6.40379H12.3745V6.40372Z" fill="white"/>
<path d="M16.9448 5.28483V4.58731C16.087 4.58861 15.246 4.34849 14.5182 3.89441C15.1625 4.59939 16.0109 5.08554 16.9448 5.28497V5.28483ZM12.4245 0.797931C12.4027 0.673214 12.3859 0.547663 12.3743 0.421586V0H9.07538V13.0928C9.07014 14.619 7.83083 15.8548 6.30241 15.8548C5.86912 15.8555 5.44175 15.7542 5.05483 15.5592C5.56152 16.2238 6.36165 16.6528 7.26221 16.6528C8.79048 16.6528 10.0299 15.417 10.0353 13.8907V0.798H12.4245V0.797931ZM7.14421 7.8331V7.09041C6.86855 7.05273 6.59064 7.03389 6.31241 7.034C2.96414 7.034 0.25 9.74669 0.25 13.0928C0.25 15.1906 1.31669 17.0394 2.93765 18.127C1.86855 17.0347 1.20986 15.5397 1.20986 13.8906C1.20986 10.5872 3.85497 7.9011 7.14421 7.83317V7.8331Z" fill="white"/>
</g>
<defs>
<clipPath id="clip0_125_255">
<rect width="17.6552" height="20" fill="white" transform="translate(0.25)"/>
</clipPath>
</defs>
</svg>
