<svg width="34" height="34" viewBox="0 0 34 34" fill="none" xmlns="http://www.w3.org/2000/svg">
<circle cx="17" cy="17" r="15.6" stroke="white" stroke-width="1.2"/>
<path d="M24.4687 14.6618C24.4794 14.8093 24.4794 14.9559 24.4794 15.1025C24.4794 19.5889 21.1281 24.7586 15.0033 24.7586C13.1164 24.7586 11.3634 24.2017 9.88818 23.2345C10.1561 23.2656 10.4141 23.2766 10.6927 23.2766C12.1919 23.2803 13.6486 22.7695 14.828 21.8266C14.1329 21.8138 13.4592 21.5801 12.9007 21.1583C12.3423 20.7364 11.9271 20.1474 11.7131 19.4735C11.919 19.5046 12.1257 19.5257 12.3424 19.5257C12.6409 19.5257 12.9411 19.4836 13.2197 19.4103C12.4654 19.2551 11.7871 18.8385 11.3002 18.2313C10.8133 17.6242 10.5478 16.8639 10.5489 16.0798V16.0377C10.9929 16.2896 11.5081 16.4471 12.0538 16.4682C11.5966 16.1586 11.2217 15.7386 10.9626 15.2455C10.7035 14.7525 10.5681 14.2017 10.5687 13.6424C10.5687 13.0122 10.7333 12.4342 11.0218 11.9304C11.8588 12.9793 12.9026 13.8375 14.0857 14.4492C15.2689 15.061 16.5649 15.4127 17.89 15.4816C17.8387 15.2289 17.8073 14.9668 17.8073 14.704C17.8071 14.2582 17.8931 13.8168 18.0604 13.405C18.2277 12.9932 18.473 12.619 18.7823 12.3038C19.0917 11.9886 19.4589 11.7386 19.8631 11.5682C20.2673 11.3977 20.7005 11.3101 21.138 11.3103C22.0972 11.3103 22.9629 11.7198 23.5715 12.382C24.3172 12.2351 25.0323 11.9577 25.685 11.5622C25.4365 12.3464 24.9158 13.0114 24.2206 13.4326C24.882 13.3558 25.5283 13.1785 26.1382 12.9069C25.6827 13.5835 25.1182 14.1768 24.4687 14.6618Z" fill="white"/>
</svg>
