<svg width="34" height="34" viewBox="0 0 34 34" fill="none" xmlns="http://www.w3.org/2000/svg">
<circle cx="17" cy="17" r="15.6" stroke="white" stroke-width="1.2"/>
<path fill-rule="evenodd" clip-rule="evenodd" d="M10.8795 12.7753H24.1554C24.4069 12.7753 24.6481 12.8752 24.8259 13.0531C25.0037 13.2309 25.1036 13.4721 25.1036 13.7236V21.3098C25.1036 21.5613 25.0037 21.8025 24.8259 21.9804C24.6481 22.1582 24.4069 22.2581 24.1554 22.2581H10.8795C10.628 22.2581 10.3868 22.1582 10.209 21.9804C10.0311 21.8025 9.93122 21.5613 9.93122 21.3098V13.7236C9.93122 13.4721 10.0311 13.2309 10.209 13.0531C10.3868 12.8752 10.628 12.7753 10.8795 12.7753ZM8.03467 13.7236C8.03467 12.9691 8.33439 12.2455 8.8679 11.712C9.40141 11.1785 10.125 10.8788 10.8795 10.8788H24.1554C24.9099 10.8788 25.6334 11.1785 26.167 11.712C26.7005 12.2455 27.0002 12.9691 27.0002 13.7236V21.3098C27.0002 22.0643 26.7005 22.7879 26.167 23.3214C25.6334 23.8549 24.9099 24.1546 24.1554 24.1546H10.8795C10.125 24.1546 9.40141 23.8549 8.8679 23.3214C8.33439 22.7879 8.03467 22.0643 8.03467 21.3098V13.7236ZM15.6209 14.6719L19.414 17.5167L15.6209 20.3615V14.6719Z" fill="white"/>
</svg>
