<svg width="35" height="34" viewBox="0 0 35 34" fill="none" xmlns="http://www.w3.org/2000/svg">
<path fill-rule="evenodd" clip-rule="evenodd" d="M17.6847 31.8949C21.5798 31.8949 25.3153 30.3476 28.0695 27.5934C30.8237 24.8392 32.371 21.1037 32.371 17.2086C32.371 13.3136 30.8237 9.57808 28.0695 6.82387C25.3153 4.06966 21.5798 2.52236 17.6847 2.52236C13.7897 2.52236 10.0542 4.06966 7.29994 6.82387C4.54573 9.57808 2.99843 13.3136 2.99843 17.2086C2.99843 21.1037 4.54573 24.8392 7.29994 27.5934C10.0542 30.3476 13.7897 31.8949 17.6847 31.8949ZM17.6847 33.993C22.1362 33.993 26.4054 32.2246 29.553 29.077C32.7007 25.9293 34.469 21.6601 34.469 17.2086C34.469 12.7572 32.7007 8.488 29.553 5.34033C26.4054 2.19266 22.1362 0.424316 17.6847 0.424316C13.2332 0.424316 8.96408 2.19266 5.81641 5.34033C2.66873 8.488 0.900391 12.7572 0.900391 17.2086C0.900391 21.6601 2.66873 25.9293 5.81641 29.077C8.96408 32.2246 13.2332 33.993 17.6847 33.993Z" fill="white"/>
<path fill-rule="evenodd" clip-rule="evenodd" d="M9.29248 17.2087C9.29248 17.4869 9.403 17.7537 9.59973 17.9504C9.79646 18.1472 10.0633 18.2577 10.3415 18.2577H22.4955L17.991 22.7601C17.8934 22.8576 17.8161 22.9734 17.7633 23.1008C17.7105 23.2283 17.6833 23.3649 17.6833 23.5028C17.6833 23.6407 17.7105 23.7773 17.7633 23.9047C17.8161 24.0322 17.8934 24.148 17.991 24.2455C18.0885 24.343 18.2043 24.4204 18.3317 24.4732C18.4591 24.526 18.5957 24.5531 18.7337 24.5531C18.8716 24.5531 19.0082 24.526 19.1356 24.4732C19.263 24.4204 19.3788 24.343 19.4764 24.2455L25.7705 17.9514C25.8682 17.8539 25.9457 17.7382 25.9986 17.6107C26.0515 17.4833 26.0787 17.3466 26.0787 17.2087C26.0787 17.0707 26.0515 16.9341 25.9986 16.8066C25.9457 16.6792 25.8682 16.5634 25.7705 16.466L19.4764 10.1718C19.3788 10.0743 19.263 9.99693 19.1356 9.94415C19.0082 9.89136 18.8716 9.8642 18.7337 9.8642C18.5957 9.8642 18.4591 9.89136 18.3317 9.94415C18.2043 9.99693 18.0885 10.0743 17.991 10.1718C17.8934 10.2694 17.8161 10.3852 17.7633 10.5126C17.7105 10.64 17.6833 10.7766 17.6833 10.9145C17.6833 11.0525 17.7105 11.1891 17.7633 11.3165C17.8161 11.4439 17.8934 11.5597 17.991 11.6572L22.4955 16.1596H10.3415C10.0633 16.1596 9.79646 16.2702 9.59973 16.4669C9.403 16.6636 9.29248 16.9304 9.29248 17.2087Z" fill="white"/>
</svg>
