<svg width="22" height="23" viewBox="0 0 22 23" fill="none" xmlns="http://www.w3.org/2000/svg">
<path d="M1.78125 8.8965C1.78125 7.21896 1.78125 6.38018 2.3024 5.85904C2.3024 5.85904 2.3024 5.85904 2.3024 5.85904C2.82354 5.33789 3.66232 5.33789 5.33986 5.33789H16.0157C17.6932 5.33789 18.532 5.33789 19.0532 5.85904C19.0532 5.85904 19.0532 5.85904 19.0532 5.85904C19.5743 6.38018 19.5743 7.21896 19.5743 8.8965C19.5743 9.31589 19.5743 9.52558 19.444 9.65587C19.3137 9.78616 19.104 9.78616 18.6847 9.78616H2.6709C2.25152 9.78616 2.04182 9.78616 1.91154 9.65587C1.91154 9.65587 1.91154 9.65587 1.91154 9.65587C1.78125 9.52558 1.78125 9.31589 1.78125 8.8965Z" fill="white"/>
<path fill-rule="evenodd" clip-rule="evenodd" d="M1.77344 16.9033C1.77344 18.5809 1.77344 19.4197 2.29458 19.9408C2.81573 20.462 3.6545 20.462 5.33205 20.462H16.0079C17.6854 20.462 18.5242 20.462 19.0453 19.9408C19.5665 19.4197 19.5665 18.5809 19.5665 16.9033V12.4551C19.5665 12.0357 19.5665 11.826 19.4362 11.6957C19.3059 11.5654 19.0962 11.5654 18.6768 11.5654H2.66309C2.2437 11.5654 2.03401 11.5654 1.90372 11.6957C1.77344 11.826 1.77344 12.0357 1.77344 12.4551V16.9033ZM6.22266 14.2344C6.22266 13.815 6.22266 13.6053 6.35294 13.475C6.48323 13.3447 6.69292 13.3447 7.11231 13.3447H8.89161C9.311 13.3447 9.52069 13.3447 9.65098 13.475C9.78127 13.6053 9.78127 13.815 9.78127 14.2344C9.78127 14.6538 9.78127 14.8635 9.65098 14.9937C9.52069 15.124 9.311 15.124 8.89162 15.124H7.11231C6.69292 15.124 6.48323 15.124 6.35294 14.9937C6.22266 14.8635 6.22266 14.6538 6.22266 14.2344ZM6.35294 17.0336C6.22266 17.1639 6.22266 17.3736 6.22266 17.793C6.22266 18.2124 6.22266 18.4221 6.35294 18.5523C6.48323 18.6826 6.69292 18.6826 7.11231 18.6826H8.89162C9.311 18.6826 9.52069 18.6826 9.65098 18.5523C9.78127 18.4221 9.78127 18.2124 9.78127 17.793C9.78127 17.3736 9.78127 17.1639 9.65098 17.0336C9.52069 16.9033 9.311 16.9033 8.89161 16.9033H7.11231C6.69292 16.9033 6.48323 16.9033 6.35294 17.0336ZM11.5587 14.2342C11.5587 13.8148 11.5587 13.6051 11.689 13.4748C11.8193 13.3445 12.029 13.3445 12.4484 13.3445H14.2277C14.6471 13.3445 14.8568 13.3445 14.987 13.4748C15.1173 13.6051 15.1173 13.8148 15.1173 14.2342C15.1173 14.6536 15.1173 14.8633 14.987 14.9936C14.8568 15.1239 14.6471 15.1239 14.2277 15.1239H12.4484C12.029 15.1239 11.8193 15.1239 11.689 14.9936C11.5587 14.8633 11.5587 14.6536 11.5587 14.2342ZM11.689 17.0335C11.5587 17.1638 11.5587 17.3735 11.5587 17.7929C11.5587 18.2123 11.5587 18.422 11.689 18.5523C11.8193 18.6826 12.029 18.6826 12.4484 18.6826H14.2277C14.6471 18.6826 14.8568 18.6826 14.987 18.5523C15.1173 18.422 15.1173 18.2123 15.1173 17.7929C15.1173 17.3735 15.1173 17.1638 14.987 17.0335C14.8568 16.9033 14.6471 16.9033 14.2277 16.9033H12.4484C12.029 16.9033 11.8193 16.9033 11.689 17.0335Z" fill="white"/>
<path d="M6.23047 3.55859L6.23047 6.22755" stroke="white" stroke-width="1.77931" stroke-linecap="round"/>
<path d="M15.125 3.55859L15.125 6.22755" stroke="white" stroke-width="1.77931" stroke-linecap="round"/>
</svg>
