<svg width="18" height="18" viewBox="0 0 18 18" fill="none" xmlns="http://www.w3.org/2000/svg">
<path fill-rule="evenodd" clip-rule="evenodd" d="M16.9545 4.06955C17.3797 5.09613 17.3797 6.39756 17.3797 9.0004C17.3797 11.6032 17.3797 12.9047 16.9545 13.9313C16.3875 15.3 15.3 16.3875 13.9313 16.9545C12.9047 17.3797 11.6032 17.3797 9.0004 17.3797H6.2073C3.57394 17.3797 2.25726 17.3797 1.43917 16.5616C0.621094 15.7436 0.621094 14.4269 0.621094 11.7935V9.0004C0.621094 6.39756 0.621094 5.09613 1.04632 4.06955C1.61328 2.70077 2.70077 1.61328 4.06955 1.04632C5.09613 0.621094 6.39756 0.621094 9.0004 0.621094C11.6032 0.621094 12.9047 0.621094 13.9313 1.04632C15.3 1.61328 16.3875 2.70077 16.9545 4.06955ZM5.33052 7.1377C5.33052 6.65146 5.7247 6.25728 6.21094 6.25728H11.7971C12.2834 6.25728 12.6776 6.65146 12.6776 7.1377C12.6776 7.62394 12.2834 8.01811 11.7971 8.01811H6.21094C5.7247 8.01811 5.33052 7.62394 5.33052 7.1377ZM5.33052 10.8618C5.33052 10.3756 5.7247 9.9814 6.21094 9.9814H9.00404C9.49028 9.9814 9.88446 10.3756 9.88446 10.8618C9.88446 11.3481 9.49028 11.7422 9.00404 11.7422H6.21094C5.7247 11.7422 5.33052 11.3481 5.33052 10.8618Z" fill="white"/>
</svg>
