<svg width="520" height="211" viewBox="0 0 520 211" fill="none" xmlns="http://www.w3.org/2000/svg">
<path d="M54.1431 178.225V153.323H5.34251V133.435L61.3295 61.5714H76.538V133.268H91.245V153.323H76.538V178.225H54.1431ZM27.7373 133.268H56.65V95.4978L27.7373 133.268ZM191.903 108.032C191.903 117.837 190.009 126.583 186.221 134.271C182.544 141.847 177.419 147.808 170.845 152.153C164.383 156.499 157.029 158.671 148.784 158.671C140.54 158.671 133.13 156.499 126.557 152.153C120.095 147.808 114.969 141.847 111.181 134.271C107.504 126.583 105.666 117.837 105.666 108.032C105.666 98.2275 107.504 89.537 111.181 81.9607C114.969 74.2729 120.095 68.2564 126.557 63.9111C133.13 59.4544 140.54 57.2261 148.784 57.2261C157.029 57.2261 164.383 59.4544 170.845 63.9111C177.419 68.2564 182.544 74.2729 186.221 81.9607C190.009 89.537 191.903 98.2275 191.903 108.032ZM169.341 108.032C169.341 102.016 168.45 96.7791 166.667 92.3224C164.996 87.7543 162.6 84.189 159.48 81.6264C156.361 79.0638 152.795 77.7825 148.784 77.7825C144.662 77.7825 141.041 79.0638 137.921 81.6264C134.802 84.189 132.35 87.7543 130.568 92.3224C128.897 96.7791 128.061 102.016 128.061 108.032C128.061 114.049 128.897 119.285 130.568 123.742C132.35 128.199 134.802 131.708 137.921 134.271C141.041 136.834 144.662 138.115 148.784 138.115C152.795 138.115 156.305 136.834 159.313 134.271C162.433 131.708 164.884 128.199 166.667 123.742C168.45 119.174 169.341 113.937 169.341 108.032ZM252.278 178.225V153.323H203.478V133.435L259.465 61.5714H274.673V133.268H289.38V153.323H274.673V178.225H252.278ZM225.872 133.268H254.785V95.4978L225.872 133.268Z" fill="white"/>
<path d="M3 202L295 202" stroke="#FF1E1E" stroke-width="6" stroke-linecap="round"/>
<path d="M149.73 180.618C184.204 180.618 212.15 152.671 212.15 118.197C212.15 83.7224 184.204 55.7756 149.73 55.7756C115.255 55.7756 87.3086 83.7224 87.3086 118.197C87.3086 152.671 115.255 180.618 149.73 180.618Z" fill="#FF1E1E"/>
<path d="M149.727 156.462C152.893 156.462 155.459 153.896 155.459 150.73C155.459 147.565 152.893 144.999 149.727 144.999C146.562 144.999 143.996 147.565 143.996 150.73C143.996 153.896 146.562 156.462 149.727 156.462Z" fill="white"/>
<path d="M149.712 79.9318C149.185 83.4301 150.129 84.1621 150.134 99.2439C150.139 114.326 153.268 134.547 149.731 134.548C146.193 134.549 144.899 92.8174 132.615 89.124C118.172 84.7815 151.416 68.6071 149.712 79.9318Z" fill="white"/>
<path d="M456.14 175.992L453.754 181.034C456.638 178.965 461.144 177.182 464.73 176.227C461.389 174.614 457.301 172.012 454.859 169.436L456.231 174.763C440.141 171.486 428.586 159.142 428.581 145.002L428 144.802C428.005 159.572 439.4 172.646 456.14 175.992Z" fill="#3F3D56"/>
<path d="M503.625 200.492L445.935 200.512C443.037 200.513 440.44 199.015 438.991 196.506C438.265 195.251 437.903 193.874 437.902 192.497C437.902 191.121 438.264 189.744 438.988 188.488L467.815 136.011C469.263 133.5 471.858 132.001 474.756 132C477.654 131.999 480.251 133.496 481.701 136.006L510.568 188.47C511.291 189.722 511.652 191.097 511.652 192.473C511.652 193.849 511.291 195.225 510.567 196.481C509.118 198.991 506.523 200.491 503.625 200.492ZM438.628 192.496C438.627 193.75 444.993 191.049 445.653 192.191C446.972 194.474 443.298 199.789 445.935 199.788C445.935 199.788 508.622 198.403 509.94 196.119C510.599 194.977 510.928 193.725 510.927 192.472C510.927 191.22 510.597 189.967 509.937 188.826L481.07 136.362C479.755 134.085 477.393 132.723 474.756 132.724C472.121 132.724 438.628 191.243 438.628 192.496Z" fill="white"/>
<path d="M491.59 188.918C506.177 188.918 518.001 177.094 518.001 162.508C518.001 147.921 506.177 136.097 491.59 136.097C477.004 136.097 465.18 147.921 465.18 162.508C465.18 177.094 477.004 188.918 491.59 188.918Z" fill="#FF1E1E"/>
<path d="M491.585 178.698C492.924 178.698 494.01 177.612 494.01 176.273C494.01 174.934 492.924 173.848 491.585 173.848C490.246 173.848 489.16 174.934 489.16 176.273C489.16 177.612 490.246 178.698 491.585 178.698Z" fill="white"/>
<path d="M491.577 146.318C491.355 147.798 491.754 148.108 491.756 154.489C491.758 160.87 493.082 169.426 491.585 169.426C490.089 169.427 489.541 151.77 484.343 150.207C478.232 148.37 492.298 141.526 491.577 146.318Z" fill="white"/>
<path d="M512.791 109.384C502.489 122.558 483.05 125.575 466.966 120.987C461.703 119.449 456.626 117.335 451.826 114.684C449.039 113.17 446.318 111.51 443.652 109.74C442.996 109.307 442.34 108.866 441.691 108.417C441.249 108.115 440.808 107.809 440.368 107.499C434.864 103.626 429.575 99.3781 424.375 95.1542C411.395 84.6101 398.058 73.7413 382.11 68.7104C378.824 67.6745 374.574 67.1898 372.542 69.9731C370.779 72.3897 371.855 75.811 373.346 78.4032C378.88 88.0047 388.924 94.0672 398.977 98.729C409.029 103.391 419.678 107.168 428.417 113.984C437.156 120.8 443.828 131.633 442.04 142.569C440.5 151.992 432.805 159.649 423.86 162.986C414.914 166.32 404.937 165.856 395.637 163.69C386.338 161.523 377.51 157.741 368.536 154.482C363.125 152.515 356.051 151.154 352.46 155.656C349.428 159.46 351.171 165.46 354.863 168.626C358.556 171.791 363.554 172.852 368.322 173.803C383.128 176.76 397.934 179.716 412.74 182.671C417.282 183.576 421.93 184.523 425.887 186.933C429.844 189.34 433.037 193.547 432.923 198.177C432.81 202.741 429.469 206.774 425.374 208.795C421.281 210.813 416.555 211.125 411.995 210.907C394.908 210.089 345.922 182.942 334.173 179.472C326.623 177.245 318.369 173.972 315.185 166.774C311.222 157.812 317.744 146.97 326.648 142.878C335.549 138.783 345.869 139.69 355.57 141.068C365.272 142.446 375.294 144.2 384.738 141.582C394.181 138.963 402.834 130.426 401.902 120.671C401.091 112.183 393.445 105.787 385.4 102.968C379.102 100.761 372.402 100.161 365.786 99.167C363.949 98.8935 362.12 98.5867 360.308 98.2088C355.668 97.2366 351.142 95.7838 346.803 93.8737C342.249 91.8737 337.924 89.3911 333.9 86.4686C330.69 84.141 327.691 81.5367 324.936 78.6855C324.516 78.2498 324.1 77.8044 323.689 77.3494C323.298 76.9137 322.911 76.4691 322.533 76.0155C317.615 70.1399 313.983 62.9037 315.072 55.4474C316.159 48.0111 321.955 41.8198 328.855 38.8453C332.844 37.1268 337.145 36.3576 341.5 36.2465C344.685 36.1828 347.868 36.412 351.011 36.9312C365.552 39.2565 378.877 46.3216 391.462 53.9713C404.045 61.621 416.308 70.0176 429.987 75.4709C443.665 80.9264 459.236 83.2362 473.113 78.3031C486.989 73.3723 498.389 59.9181 497.711 45.2078C506.915 53.1332 514.736 63.0949 518.199 74.7351C521.663 86.3752 520.271 99.8161 512.791 109.384Z" fill="white"/>
<path d="M446.473 94.1816C447.367 94.1816 448.091 93.4573 448.091 92.5637C448.091 91.6702 447.367 90.9458 446.473 90.9458C445.58 90.9458 444.855 91.6702 444.855 92.5637C444.855 93.4573 445.58 94.1816 446.473 94.1816Z" fill="#FF1E1E"/>
<path d="M503.611 73.7233C504.992 73.7233 506.112 72.6034 506.112 71.2219C506.112 69.8404 504.992 68.7205 503.611 68.7205C502.229 68.7205 501.109 69.8404 501.109 71.2219C501.109 72.6034 502.229 73.7233 503.611 73.7233Z" fill="#FF6584"/>
<path d="M339.549 150.844C340.06 150.844 340.474 150.43 340.474 149.92C340.474 149.409 340.06 148.996 339.549 148.996C339.039 148.996 338.625 149.409 338.625 149.92C338.625 150.43 339.039 150.844 339.549 150.844Z" fill="#FF6584"/>
<path d="M366.073 96.7881C366.073 97.5898 365.976 98.3886 365.784 99.1669C363.948 98.8934 362.118 98.5866 360.306 98.2087C355.666 97.2365 351.14 95.7837 346.801 93.8736C347.499 91.6208 348.981 89.6927 350.979 88.4396C352.977 87.1865 355.358 86.6913 357.69 87.0439C360.022 87.3966 362.15 88.5737 363.688 90.3616C365.226 92.1495 366.072 94.4297 366.073 96.7881Z" fill="#FF6584"/>
<path d="M487.602 88.3959C488.124 88.3959 488.547 87.9727 488.547 87.4506C488.547 86.9286 488.124 86.5054 487.602 86.5054C487.079 86.5054 486.656 86.9286 486.656 87.4506C486.656 87.9727 487.079 88.3959 487.602 88.3959Z" fill="#F0F0F0"/>
<path d="M401.125 192.437C401.647 192.437 402.07 192.014 402.07 191.492C402.07 190.97 401.647 190.547 401.125 190.547C400.603 190.547 400.18 190.97 400.18 191.492C400.18 192.014 400.603 192.437 401.125 192.437Z" fill="#F0F0F0"/>
<path d="M414.684 205.553C415.206 205.553 415.629 205.13 415.629 204.608C415.629 204.086 415.206 203.663 414.684 203.663C414.161 203.663 413.738 204.086 413.738 204.608C413.738 205.13 414.161 205.553 414.684 205.553Z" fill="#F0F0F0"/>
<path d="M330.875 168.205C331.397 168.205 331.82 167.782 331.82 167.26C331.82 166.738 331.397 166.315 330.875 166.315C330.353 166.315 329.93 166.738 329.93 167.26C329.93 167.782 330.353 168.205 330.875 168.205Z" fill="#F0F0F0"/>
<path d="M377.34 150.643C377.862 150.643 378.285 150.22 378.285 149.697C378.285 149.175 377.862 148.752 377.34 148.752C376.818 148.752 376.395 149.175 376.395 149.697C376.395 150.22 376.818 150.643 377.34 150.643Z" fill="#F0F0F0"/>
<path d="M372.672 56.8278C373.194 56.8278 373.617 56.4046 373.617 55.8825C373.617 55.3605 373.194 54.9373 372.672 54.9373C372.15 54.9373 371.727 55.3605 371.727 55.8825C371.727 56.4046 372.15 56.8278 372.672 56.8278Z" fill="#F0F0F0"/>
<path d="M429.805 130.857C430.327 130.857 430.75 130.434 430.75 129.912C430.75 129.39 430.327 128.967 429.805 128.967C429.283 128.967 428.859 129.39 428.859 129.912C428.859 130.434 429.283 130.857 429.805 130.857Z" fill="#F0F0F0"/>
<path d="M436.914 147.308C437.436 147.308 437.859 146.885 437.859 146.363C437.859 145.841 437.436 145.417 436.914 145.417C436.392 145.417 435.969 145.841 435.969 146.363C435.969 146.885 436.392 147.308 436.914 147.308Z" fill="#F0F0F0"/>
<path d="M351.71 58.8998C351.717 63.6725 350.59 68.3785 348.42 72.6296C348.133 73.1899 347.83 73.7404 347.509 74.2814C344.332 79.6463 339.579 83.9018 333.897 86.4685C330.687 84.1409 327.688 81.5366 324.933 78.6854C324.513 78.2496 324.097 77.8043 323.686 77.3493C323.295 76.9136 322.908 76.4689 322.53 76.0154C317.612 70.1398 313.98 62.9036 315.069 55.4473C316.156 48.011 321.952 41.8196 328.852 38.8451C332.841 37.1267 337.142 36.3575 341.497 36.2463C344.903 39.2535 347.587 42.9888 349.352 47.1751C349.574 47.702 349.778 48.2355 349.972 48.7757C351.126 52.0263 351.714 55.4505 351.71 58.8998Z" fill="#FF1E1E"/>
<path d="M365.495 60.4559C365.495 65.0866 360.973 69.3816 352.761 72.554C351.118 73.1898 349.36 73.7656 347.51 74.2813C340.587 76.211 332.348 77.2803 323.687 77.3492C323.296 76.9135 322.909 76.4689 322.531 76.0154C322.625 76.0176 322.718 76.0176 322.811 76.0176C332.217 76.0176 341.141 74.826 348.422 72.6296C349.766 72.2228 351.056 71.7826 352.281 71.3091C359.83 68.3946 364.161 64.4374 364.161 60.4559C364.161 56.4743 359.83 52.5194 352.281 49.6027C351.534 49.3137 350.765 49.038 349.973 48.7757C349.78 48.2355 349.575 47.7019 349.353 47.175C350.536 47.5441 351.672 47.9383 352.761 48.3577C360.973 51.5301 365.495 55.8274 365.495 60.4559Z" fill="#E4E4E4"/>
<path d="M324.207 43.9337C324.729 43.9337 325.152 43.5105 325.152 42.9885C325.152 42.4664 324.729 42.0432 324.207 42.0432C323.685 42.0432 323.262 42.4664 323.262 42.9885C323.262 43.5105 323.685 43.9337 324.207 43.9337Z" fill="#F0F0F0"/>
<path d="M343.988 49.9362C344.51 49.9362 344.933 49.513 344.933 48.9909C344.933 48.4689 344.51 48.0457 343.988 48.0457C343.466 48.0457 343.043 48.4689 343.043 48.9909C343.043 49.513 343.466 49.9362 343.988 49.9362Z" fill="#F0F0F0"/>
<path d="M333.77 67.7423C338.847 67.7423 342.962 63.6268 342.962 58.5501C342.962 53.4734 338.847 49.3579 333.77 49.3579C328.694 49.3579 324.578 53.4734 324.578 58.5501C324.578 63.6268 328.694 67.7423 333.77 67.7423Z" fill="#F0F0F0"/>
<path opacity="0.3" d="M503.523 107.201C501.459 107.81 496.911 108.259 491.909 108.535C486.909 108.808 481.425 108.929 476.009 109.044C466.53 109.249 457.052 109.454 447.574 109.66C446.271 109.689 444.964 109.716 443.652 109.74C442.996 109.306 442.341 108.866 441.691 108.417C442.854 108.424 444.017 108.417 445.171 108.395C450.099 108.297 454.272 107.913 459.025 107.73C466.339 107.448 474.235 107.67 481.858 107.784C489.481 107.899 498.167 107.857 503.523 107.201Z" fill="#F0F0F0"/>
<path opacity="0.3" d="M358.037 177.28L327.82 152.108L357.175 178.289C357.232 178.384 357.311 178.465 357.405 178.524C357.5 178.583 357.607 178.619 357.718 178.629C357.829 178.638 357.94 178.621 358.043 178.579C358.146 178.537 358.238 178.471 358.31 178.386C358.382 178.301 358.434 178.201 358.459 178.092C358.485 177.984 358.484 177.871 358.458 177.763C358.431 177.655 358.379 177.555 358.306 177.471C358.233 177.387 358.14 177.321 358.037 177.28Z" fill="#F0F0F0"/>
<path d="M335.102 81.9489C335.624 81.9489 336.047 81.5257 336.047 81.0036C336.047 80.4816 335.624 80.0583 335.102 80.0583C334.579 80.0583 334.156 80.4816 334.156 81.0036C334.156 81.5257 334.579 81.9489 335.102 81.9489Z" fill="#F0F0F0"/>
<path d="M414.489 190.532L418.399 190.531L420.259 175.45L414.488 175.451L414.489 190.532Z" fill="#FFB6B6"/>
<path d="M413.488 189.255L414.589 189.255L418.885 187.508L421.188 189.255H421.188C422.49 189.255 423.738 189.772 424.658 190.692C425.578 191.612 426.095 192.86 426.095 194.161V194.321L413.489 194.321L413.488 189.255Z" fill="#2F2E41"/>
<path d="M385.207 190.532L381.298 190.531L379.438 175.45L385.208 175.451L385.207 190.532Z" fill="#FFB6B6"/>
<path d="M386.205 194.321L373.598 194.321V194.161C373.598 192.86 374.115 191.612 375.035 190.692C375.955 189.772 377.203 189.255 378.505 189.255H378.505L380.808 187.508L385.104 189.255L386.205 189.255L386.205 194.321Z" fill="#2F2E41"/>
<path d="M399.221 74.9553L395.262 77.9699L384.745 80.7549C384.745 80.7549 388.514 107.201 386.735 108.98C384.957 110.758 386.561 110.806 386.203 113.116C385.846 115.427 384.422 121.526 384.422 121.526H415.809C415.809 121.526 416.062 117.735 414.515 116.914C412.968 116.093 415.941 112.262 414.677 111.621C413.412 110.98 415.191 105.423 415.191 105.423L419.045 87.2266L408.794 79.2057L407.234 75.4492L399.221 74.9553Z" fill="#FF1E1E"/>
<path d="M404.155 98.5874C404.911 98.5874 405.525 97.9741 405.525 97.2176C405.525 96.4612 404.911 95.8479 404.155 95.8479C403.398 95.8479 402.785 96.4612 402.785 97.2176C402.785 97.9741 403.398 98.5874 404.155 98.5874Z" fill="#F2F2F2"/>
<path d="M403.333 72.9693C406.996 72.9693 409.966 69.9994 409.966 66.3358C409.966 62.6723 406.996 59.7024 403.333 59.7024C399.669 59.7024 396.699 62.6723 396.699 66.3358C396.699 69.9994 399.669 72.9693 403.333 72.9693Z" fill="#FFB6B6"/>
<path opacity="0.1" d="M414.672 96.1251L415.966 97.0959L416.613 92.5657L414.672 96.1251Z" fill="black"/>
<path d="M385.365 80.7294C385.365 80.7294 383.747 80.4059 382.776 83.3181C381.806 86.2303 378.246 97.2322 378.246 99.1736C378.246 101.115 400.413 109.682 400.413 109.682L398.106 101.59L387.954 96.2614L385.365 80.7294Z" fill="#FF1E1E"/>
<path d="M401.432 108.482C403.519 108.482 405.211 106.79 405.211 104.703C405.211 102.615 403.519 100.923 401.432 100.923C399.344 100.923 397.652 102.615 397.652 104.703C397.652 106.79 399.344 108.482 401.432 108.482Z" fill="#FFB6B6"/>
<path opacity="0.1" d="M387.656 92.2532L387.952 96.2612L397.341 101.189L388.99 95.5878L387.656 92.2532Z" fill="black"/>
<path d="M410.225 92.8245H410.103V89.488C410.103 89.2344 410.053 88.9833 409.956 88.749C409.859 88.5147 409.717 88.3018 409.537 88.1225C409.358 87.9432 409.145 87.8009 408.911 87.7039C408.676 87.6068 408.425 87.5569 408.172 87.5569H401.103C400.849 87.5569 400.598 87.6068 400.364 87.7039C400.13 87.8009 399.917 87.9432 399.737 88.1225C399.558 88.3018 399.416 88.5147 399.319 88.749C399.222 88.9833 399.172 89.2344 399.172 89.488V107.792C399.172 108.046 399.222 108.297 399.319 108.531C399.416 108.766 399.558 108.978 399.737 109.158C399.917 109.337 400.13 109.479 400.364 109.576C400.598 109.673 400.849 109.723 401.103 109.723H408.172C408.425 109.723 408.676 109.673 408.911 109.576C409.145 109.479 409.358 109.337 409.537 109.158C409.717 108.978 409.859 108.766 409.956 108.531C410.053 108.297 410.103 108.046 410.103 107.792V95.1994H410.225V92.8245Z" fill="#F0F0F0"/>
<path d="M419.042 87.2266C419.042 87.2266 420.013 87.8737 420.66 90.786C421.307 93.6982 425.514 104.7 423.896 107.289C422.278 109.877 421.8 112.64 416.299 108.757L408.688 101.788L414.188 96.6105L416.453 98.2284L419.042 87.2266Z" fill="#FF1E1E"/>
<path d="M404.719 95.7153C405.613 95.7153 406.337 94.9909 406.337 94.0974C406.337 93.2039 405.613 92.4795 404.719 92.4795C403.826 92.4795 403.102 93.2039 403.102 94.0974C403.102 94.9909 403.826 95.7153 404.719 95.7153Z" fill="#FF1E1E"/>
<path d="M409.408 101.421C411.495 101.421 413.187 99.7291 413.187 97.6418C413.187 95.5546 411.495 93.8625 409.408 93.8625C407.321 93.8625 405.629 95.5546 405.629 97.6418C405.629 99.7291 407.321 101.421 409.408 101.421Z" fill="#FFB6B6"/>
<path opacity="0.1" d="M387.477 104.35L398.326 109.149L387.176 106.969L387.477 104.35Z" fill="black"/>
<path d="M396.631 67.6577L395.72 64.1915C395.483 63.2871 395.243 62.3644 395.297 61.4308C395.35 60.4972 395.746 59.5338 396.533 59.028C397.319 58.5223 398.52 58.6417 399.026 59.4281C399.122 58.1725 400.264 57.2068 401.476 56.8646C402.688 56.5225 403.975 56.6578 405.232 56.7155C406.49 56.7732 407.818 56.7329 408.904 56.095C408.987 56.3432 408.981 56.6124 408.888 56.8571C408.796 57.1017 408.621 57.3069 408.395 57.438C408.665 57.5117 408.953 57.48 409.2 57.3495C409.447 57.219 409.636 56.9994 409.728 56.7351C409.736 57.4622 409.467 58.1652 408.976 58.7015C409.445 58.469 409.983 58.4192 410.486 58.5617C410.989 58.7042 411.421 59.0288 411.698 59.4724C412.253 60.4329 411.942 61.6392 411.618 62.6997L409.954 68.1424C409.702 67.315 409.654 66.4415 409.519 65.5871C409.384 64.7327 409.144 63.8601 408.58 63.2043C408.016 62.5485 407.058 62.1687 406.257 62.4943C405.807 62.677 405.464 63.0477 405.059 63.3137C404.226 63.8595 403.166 63.9378 402.177 63.8267C401.187 63.7156 400.223 63.4338 399.233 63.3213C398.614 63.2508 397.923 63.2695 397.455 63.6821C397.134 64.0161 396.921 64.44 396.846 64.8975C396.626 65.8094 396.539 66.7486 396.589 67.6855" fill="#2F2E41"/>
<path d="M384.412 121.526L383.118 154.855C383.118 154.855 377.529 179.472 378.5 180.119C379.471 180.766 379.882 184.625 379.882 184.625L385.383 185.272C385.383 185.272 385.383 182.683 386.677 181.713C387.972 180.742 399.944 135.117 399.944 135.117L411.624 179.23C411.624 179.23 411.917 181.713 412.887 181.713C413.858 181.713 414.182 185.272 414.182 185.272H419.683V181.713C419.683 181.713 422.154 180.929 421.184 178.34C420.213 175.752 415.8 121.526 415.8 121.526H384.412Z" fill="#2F2E41"/>
<path d="M418.296 59.9167C419.432 60.5454 420.863 60.1341 421.491 58.998C422.12 57.862 421.709 56.4314 420.573 55.8027C419.437 55.174 418.006 55.5853 417.377 56.7213C416.749 57.8574 417.16 59.288 418.296 59.9167Z" fill="#FF1E1E"/>
<path d="M431.092 36.2736C427.865 34.5172 423.787 35.6729 421.962 38.8622C421.946 38.8917 421.83 39.1002 421.679 39.3732C421.457 39.7734 421.404 40.2452 421.53 40.6848C421.657 41.1244 421.952 41.4958 422.353 41.7173C422.551 41.827 422.769 41.8966 422.994 41.922C423.22 41.9475 423.448 41.9282 423.666 41.8655C423.884 41.8027 424.087 41.6976 424.264 41.5562C424.442 41.4148 424.589 41.2399 424.699 41.0414C424.801 40.8557 424.872 40.7271 424.877 40.7192C425.152 40.2224 425.551 39.8056 426.036 39.5099C426.521 39.2143 427.074 39.0499 427.641 39.033C428.209 39.016 428.771 39.1471 429.273 39.4134C429.774 39.6796 430.198 40.0719 430.502 40.5515C430.806 41.0311 430.98 41.5815 431.006 42.1487C431.033 42.7159 430.912 43.2803 430.654 43.7863C430.396 44.2923 430.012 44.7226 429.537 45.0347C429.063 45.3469 428.516 45.5302 427.949 45.5667L427.949 45.5676C427.949 45.5676 425.036 45.7617 423.332 47.296L423.332 47.2965C423.002 47.6213 422.721 47.9922 422.497 48.3976C422.404 48.5642 421.608 50.0272 420.972 51.2208C420.753 51.6326 420.704 52.1142 420.837 52.5616C420.969 53.0089 421.272 53.3862 421.681 53.6121C421.886 53.7256 422.111 53.7974 422.344 53.8234C422.577 53.8494 422.813 53.8291 423.038 53.7636C423.263 53.6982 423.473 53.5888 423.656 53.4419C423.839 53.295 423.991 53.1134 424.103 52.9075C424.696 51.8204 425.391 50.5569 425.441 50.4653C426.086 49.3006 427.852 48.762 429.193 48.516C430.738 48.2327 432.16 47.4685 433.209 46.2989C433.429 46.0607 433.623 45.799 433.786 45.5186C434.22 44.7354 434.494 43.8742 434.593 42.9846C434.692 42.095 434.614 41.1946 434.364 40.3353C434.114 39.4759 433.696 38.6746 433.134 37.9775C432.573 37.2804 431.879 36.7013 431.092 36.2736Z" fill="#FF1E1E"/>
<path d="M423.172 41.2394C422.772 41.0178 422.476 40.6464 422.35 40.2069C422.223 39.7673 422.277 39.2955 422.498 38.8953C422.649 38.6223 422.765 38.4137 422.782 38.3843C423.312 37.4564 424.055 36.6683 424.951 36.0854C423.684 36.6732 422.632 37.64 421.938 38.8523C421.922 38.8817 421.806 39.0903 421.655 39.3633C421.433 39.7635 421.38 40.2353 421.506 40.6749C421.633 41.1145 421.929 41.4859 422.329 41.7074C422.658 41.8892 423.037 41.9588 423.409 41.9054C423.781 41.8521 424.126 41.6787 424.39 41.4117C423.977 41.5066 423.543 41.4452 423.172 41.2394Z" fill="white"/>
<path d="M429.437 39.5099C429.887 39.788 430.263 40.1713 430.533 40.6268C430.803 41.0824 430.958 41.5966 430.985 42.1253C431.012 42.6539 430.91 43.1813 430.689 43.6621C430.467 44.1429 430.132 44.5627 429.713 44.8856C430.153 44.7199 430.552 44.4613 430.883 44.1274C431.214 43.7935 431.47 43.3921 431.631 42.9506C431.793 42.5091 431.858 42.0379 431.821 41.5691C431.785 41.1003 431.647 40.645 431.419 40.234C431.19 39.8231 430.876 39.4664 430.497 39.1881C430.117 38.9097 429.683 38.7164 429.222 38.6213C428.762 38.5261 428.286 38.5314 427.828 38.6368C427.37 38.7421 426.939 38.945 426.567 39.2317C427.034 39.0552 427.536 38.9885 428.034 39.0367C428.532 39.085 429.011 39.2468 429.437 39.5099Z" fill="white"/>
<path d="M422.498 53.134C422.09 52.9081 421.787 52.5308 421.654 52.0835C421.521 51.6361 421.57 51.1545 421.789 50.7427C422.425 49.5492 423.222 48.0861 423.314 47.9195C423.538 47.5141 423.82 47.1432 424.15 46.8184L424.149 46.818C424.325 46.6606 424.512 46.5162 424.709 46.386C424.199 46.6146 423.727 46.9179 423.306 47.286L423.307 47.2864C422.976 47.6112 422.695 47.9821 422.471 48.3875C422.379 48.5541 421.582 50.0172 420.946 51.2107C420.727 51.6226 420.678 52.1041 420.811 52.5515C420.944 52.9988 421.247 53.3761 421.655 53.602C421.992 53.7882 422.38 53.8603 422.761 53.8073C423.142 53.7544 423.495 53.5794 423.768 53.3085C423.338 53.411 422.885 53.3487 422.498 53.134Z" fill="white"/>
<path d="M418.119 59.1642C417.898 58.8752 417.746 58.5386 417.677 58.181C417.607 57.8234 417.622 57.4546 417.719 57.1036C417.817 56.7527 417.995 56.4292 418.239 56.1587C418.483 55.8882 418.786 55.6781 419.125 55.5449C418.794 55.5866 418.476 55.6981 418.192 55.8721C417.908 56.046 417.663 56.2785 417.476 56.554C417.288 56.8296 417.161 57.1419 417.103 57.4702C417.046 57.7986 417.058 58.1354 417.141 58.4584C417.223 58.7815 417.373 59.0833 417.581 59.3438C417.789 59.6044 418.05 59.8178 418.347 59.9697C418.644 60.1217 418.969 60.2088 419.302 60.2253C419.635 60.2418 419.968 60.1873 420.278 60.0654C419.871 60.1169 419.458 60.0608 419.079 59.9026C418.7 59.7445 418.369 59.4899 418.119 59.1642Z" fill="white"/>
</svg>
