<svg width="20" height="20" viewBox="0 0 20 20" fill="none" xmlns="http://www.w3.org/2000/svg">
<path d="M9.99969 6.75005C8.20477 6.75005 6.74969 8.20512 6.74969 10C6.74969 11.795 8.20477 13.25 9.99969 13.25C11.7946 13.25 13.2497 11.795 13.2497 10C13.2497 8.20512 11.7946 6.75005 9.99969 6.75005Z" fill="white"/>
<path fill-rule="evenodd" clip-rule="evenodd" d="M4.76923 1.08151C8.21735 0.696136 11.7821 0.696136 15.2302 1.08151C17.1286 1.29369 18.6598 2.78947 18.8826 4.69452C19.2949 8.21952 19.2949 11.7806 18.8826 15.3056C18.6598 17.2106 17.1286 18.7064 15.2302 18.9186C11.7821 19.304 8.21735 19.304 4.76923 18.9186C2.87083 18.7064 1.33964 17.2106 1.11683 15.3056C0.704547 11.7806 0.704547 8.21952 1.11683 4.69452C1.33964 2.78947 2.87083 1.29369 4.76923 1.08151ZM14.9997 4.00005C14.4474 4.00005 13.9997 4.44776 13.9997 5.00005C13.9997 5.55233 14.4474 6.00005 14.9997 6.00005C15.552 6.00005 15.9997 5.55233 15.9997 5.00005C15.9997 4.44776 15.552 4.00005 14.9997 4.00005ZM5.24969 10C5.24969 7.37669 7.37634 5.25005 9.99969 5.25005C12.623 5.25005 14.7497 7.37669 14.7497 10C14.7497 12.6234 12.623 14.75 9.99969 14.75C7.37634 14.75 5.24969 12.6234 5.24969 10Z" fill="white"/>
</svg>
