<svg width="21" height="16" viewBox="0 0 21 16" fill="none" xmlns="http://www.w3.org/2000/svg">
<path d="M17.0039 -0.000976562H3.00391C2.20826 -0.000976562 1.4452 0.315094 0.882586 0.877703C0.319977 1.44031 0.00390625 2.20337 0.00390625 2.99902V12.999C0.00390625 13.7947 0.319977 14.5577 0.882586 15.1203C1.4452 15.683 2.20826 15.999 3.00391 15.999H17.0039C17.7996 15.999 18.5626 15.683 19.1252 15.1203C19.6878 14.5577 20.0039 13.7947 20.0039 12.999V2.99902C20.0039 2.20337 19.6878 1.44031 19.1252 0.877703C18.5626 0.315094 17.7996 -0.000976562 17.0039 -0.000976562ZM16.3339 1.99902L10.0039 6.74902L3.67391 1.99902H16.3339ZM17.0039 13.999H3.00391C2.73869 13.999 2.48434 13.8937 2.2968 13.7061C2.10926 13.5186 2.00391 13.2642 2.00391 12.999V3.24902L9.40391 8.79902C9.577 8.92885 9.78754 8.99902 10.0039 8.99902C10.2203 8.99902 10.4308 8.92885 10.6039 8.79902L18.0039 3.24902V12.999C18.0039 13.2642 17.8986 13.5186 17.711 13.7061C17.5235 13.8937 17.2691 13.999 17.0039 13.999Z" fill="#595959"/>
</svg>
