<svg width="27" height="27" viewBox="0 0 27 27" fill="none" xmlns="http://www.w3.org/2000/svg">
<path d="M2.87109 9.80719C2.87109 7.7694 2.87109 6.7505 3.50416 6.11744C3.50416 6.11744 3.50416 6.11744 3.50416 6.11744C4.13722 5.48438 5.15612 5.48438 7.19391 5.48438H20.1624C22.2002 5.48438 23.2191 5.48438 23.8521 6.11744C23.8521 6.11744 23.8521 6.11744 23.8521 6.11744C24.4852 6.7505 24.4852 7.7694 24.4852 9.80719C24.4852 10.3166 24.4852 10.5714 24.3269 10.7296C24.1686 10.8879 23.9139 10.8879 23.4045 10.8879H3.9518C3.44235 10.8879 3.18762 10.8879 3.02936 10.7296C3.02936 10.7296 3.02936 10.7296 3.02936 10.7296C2.87109 10.5714 2.87109 10.3166 2.87109 9.80719Z" fill="#929292"/>
<path fill-rule="evenodd" clip-rule="evenodd" d="M2.86719 19.5335C2.86719 21.5713 2.86719 22.5902 3.50025 23.2233C4.13331 23.8564 5.15221 23.8564 7.19 23.8564H20.1585C22.1962 23.8564 23.2151 23.8564 23.8482 23.2233C24.4813 22.5902 24.4813 21.5713 24.4813 19.5335V14.13C24.4813 13.6206 24.4813 13.3658 24.323 13.2076C24.1647 13.0493 23.91 13.0493 23.4006 13.0493H3.94789C3.43844 13.0493 3.18372 13.0493 3.02545 13.2076C2.86719 13.3658 2.86719 13.6206 2.86719 14.13V19.5335ZM8.26953 16.2914C8.26953 15.782 8.26953 15.5273 8.4278 15.369C8.58606 15.2107 8.84079 15.2107 9.35023 15.2107H11.5116C12.0211 15.2107 12.2758 15.2107 12.4341 15.369C12.5923 15.5273 12.5923 15.782 12.5923 16.2914C12.5923 16.8009 12.5923 17.0556 12.4341 17.2139C12.2758 17.3721 12.0211 17.3721 11.5116 17.3721H9.35024C8.84079 17.3721 8.58606 17.3721 8.4278 17.2139C8.26953 17.0556 8.26953 16.8009 8.26953 16.2914ZM8.4278 19.6918C8.26953 19.8501 8.26953 20.1048 8.26953 20.6143C8.26953 21.1237 8.26953 21.3784 8.4278 21.5367C8.58606 21.695 8.84079 21.695 9.35024 21.695H11.5116C12.0211 21.695 12.2758 21.695 12.4341 21.5367C12.5923 21.3784 12.5923 21.1237 12.5923 20.6143C12.5923 20.1048 12.5923 19.8501 12.4341 19.6918C12.2758 19.5336 12.0211 19.5336 11.5116 19.5336H9.35023C8.84079 19.5336 8.58606 19.5336 8.4278 19.6918ZM14.7539 16.2914C14.7539 15.782 14.7539 15.5273 14.9122 15.369C15.0704 15.2107 15.3252 15.2107 15.8346 15.2107H17.996C18.5055 15.2107 18.7602 15.2107 18.9185 15.369C19.0767 15.5273 19.0767 15.782 19.0767 16.2914C19.0767 16.8009 19.0767 17.0556 18.9185 17.2139C18.7602 17.3721 18.5055 17.3721 17.996 17.3721H15.8346C15.3252 17.3721 15.0704 17.3721 14.9122 17.2139C14.7539 17.0556 14.7539 16.8009 14.7539 16.2914ZM14.9122 19.6918C14.7539 19.8501 14.7539 20.1048 14.7539 20.6143C14.7539 21.1237 14.7539 21.3784 14.9122 21.5367C15.0704 21.695 15.3252 21.695 15.8346 21.695H17.996C18.5055 21.695 18.7602 21.695 18.9185 21.5367C19.0767 21.3784 19.0767 21.1237 19.0767 20.6143C19.0767 20.1048 19.0767 19.8501 18.9185 19.6918C18.7602 19.5336 18.5055 19.5336 17.996 19.5336H15.8346C15.3252 19.5336 15.0704 19.5336 14.9122 19.6918Z" fill="#929292"/>
<path d="M8.27344 3.323L8.27344 6.56511" stroke="#929292" stroke-width="2.16141" stroke-linecap="round"/>
<path d="M19.082 3.323L19.082 6.56511" stroke="#929292" stroke-width="2.16141" stroke-linecap="round"/>
</svg>
