<svg width="25" height="25" viewBox="0 0 25 25" fill="none" xmlns="http://www.w3.org/2000/svg">
<path d="M3.03906 7.45181C3.03906 5.54138 3.03906 4.58616 3.63256 3.99267C4.22605 3.39917 5.18127 3.39917 7.0917 3.39917H17.2233C19.1337 3.39917 20.089 3.39917 20.6825 3.99267C21.2759 4.58616 21.2759 5.54138 21.2759 7.45181V17.5834C21.2759 19.4938 21.2759 20.4491 20.6825 21.0426C20.089 21.6361 19.1337 21.6361 17.2233 21.6361H7.09171C5.18127 21.6361 4.22605 21.6361 3.63256 21.0426C3.03906 20.4491 3.03906 19.4938 3.03906 17.5834V7.45181Z" stroke="#929292" stroke-width="2.02632"/>
<path fill-rule="evenodd" clip-rule="evenodd" d="M18.2365 10.4911H12.823C11.9947 10.4911 11.5806 10.4911 11.2082 10.3369C10.8359 10.1827 10.543 9.88982 9.95735 9.30415L9.29185 8.63865C8.70619 8.05298 8.41335 7.76015 8.04097 7.60591C7.66859 7.45166 7.25446 7.45166 6.42621 7.45166H3.03906V17.5833C3.03906 19.4937 3.03906 20.4489 3.63256 21.0424C4.22605 21.6359 5.18127 21.6359 7.0917 21.6359H17.2233C19.1337 21.6359 20.089 21.6359 20.6825 21.0424C21.2759 20.4489 21.2759 19.4937 21.2759 17.5833V7.45166C21.2759 8.39581 21.2759 8.86788 21.1217 9.24026C20.916 9.73677 20.5216 10.1312 20.0251 10.3369C19.6527 10.4911 19.1806 10.4911 18.2365 10.4911ZM7.08984 15.5569C6.53029 15.5569 6.07668 16.0105 6.07668 16.5701C6.07668 17.1296 6.53029 17.5832 7.08984 17.5832H15.1951C15.7547 17.5832 16.2083 17.1296 16.2083 16.5701C16.2083 16.0105 15.7547 15.5569 15.1951 15.5569H7.08984Z" fill="#929292"/>
</svg>
