<svg width="34" height="34" viewBox="0 0 34 34" fill="none" xmlns="http://www.w3.org/2000/svg">
<g clip-path="url(#clip0_86_1939)">
<path d="M22.0836 14.2019C23.3718 15.1223 24.9498 15.6638 26.6542 15.6638V12.3858C26.3316 12.3859 26.0099 12.3523 25.6943 12.2854V14.8656C23.9901 14.8656 22.4123 14.3242 21.1238 13.4039V20.0933C21.1238 23.4397 18.4096 26.1523 15.0618 26.1523C13.8126 26.1523 12.6515 25.7748 11.687 25.1274C12.7878 26.2525 14.323 26.9503 16.0214 26.9503C19.3695 26.9503 22.0838 24.2378 22.0838 20.8912V14.2019H22.0836ZM23.2678 10.8949C22.6094 10.176 22.1771 9.24708 22.0836 8.22005V7.79846H21.174C21.403 9.10377 22.184 10.2189 23.2677 10.8949H23.2678ZM13.8045 22.5596C13.4367 22.0776 13.2379 21.4879 13.2388 20.8816C13.2388 19.3512 14.4803 18.1102 16.0119 18.1102C16.2973 18.11 16.581 18.1538 16.8531 18.24V14.8888C16.5351 14.8453 16.2143 14.8267 15.8936 14.8336V17.442C15.6214 17.3557 15.3376 17.3119 15.052 17.3122C13.5205 17.3122 12.2791 18.553 12.2791 20.0837C12.2791 21.166 12.8996 22.1031 13.8045 22.5596Z" fill="white"/>
<path d="M21.125 13.4038C22.4135 14.3241 23.9912 14.8656 25.6955 14.8656V12.2854C24.7442 12.0828 23.902 11.586 23.2689 10.8949C22.1851 10.2189 21.4042 9.1037 21.1752 7.79846H18.786V20.8911C18.7806 22.4174 17.5413 23.6533 16.0129 23.6533C15.1124 23.6533 14.3122 23.2243 13.8056 22.5595C12.9007 22.1031 12.2802 21.166 12.2802 20.0838C12.2802 18.5532 13.5216 17.3123 15.0531 17.3123C15.3466 17.3123 15.6294 17.3579 15.8947 17.442V14.8336C12.6056 14.9016 9.96045 17.5876 9.96045 20.8912C9.96045 22.5403 10.6191 24.0352 11.6882 25.1276C12.6527 25.7748 13.8138 26.1524 15.063 26.1524C18.4109 26.1524 21.1251 23.4396 21.1251 20.0933V13.4039H21.125V13.4038Z" fill="white"/>
<path d="M25.6948 12.2848V11.5873C24.837 11.5886 23.996 11.3485 23.2682 10.8944C23.9125 11.5994 24.7609 12.0855 25.6948 12.285V12.2848ZM21.1745 7.79793C21.1527 7.67321 21.1359 7.54766 21.1243 7.42159V7H17.8254V20.0928C17.8201 21.619 16.5808 22.8548 15.0524 22.8548C14.6191 22.8555 14.1918 22.7542 13.8048 22.5592C14.3115 23.2238 15.1117 23.6528 16.0122 23.6528C17.5405 23.6528 18.7799 22.417 18.7853 20.8907V7.798H21.1745V7.79793ZM15.8942 14.8331V14.0904C15.6185 14.0527 15.3406 14.0339 15.0624 14.034C11.7141 14.034 9 16.7467 9 20.0928C9 22.1906 10.0667 24.0394 11.6877 25.127C10.6186 24.0347 9.95986 22.5397 9.95986 20.8906C9.95986 17.5872 12.605 14.9011 15.8942 14.8332V14.8331Z" fill="white"/>
</g>
<circle cx="17" cy="17" r="15.6" stroke="white" stroke-width="1.2"/>
<defs>
<clipPath id="clip0_86_1939">
<rect width="17.6552" height="20" fill="white" transform="translate(9 7)"/>
</clipPath>
</defs>
</svg>
