<svg width="20" height="17" viewBox="0 0 20 17" fill="none" xmlns="http://www.w3.org/2000/svg">
<path d="M19.715 2.22724C19.773 2.14647 19.6874 2.04218 19.5947 2.07811C18.936 2.33344 18.2475 2.50571 17.5453 2.5906C18.3272 2.12348 18.9306 1.4124 19.2652 0.570533C19.2992 0.484774 19.2056 0.408187 19.1248 0.452801C18.3981 0.854139 17.6143 1.14313 16.8002 1.30957C16.7661 1.31654 16.731 1.30494 16.7071 1.27969C16.0961 0.635016 15.2919 0.205781 14.4151 0.0574517C13.52 -0.0939932 12.5998 0.0559587 11.7991 0.48379C10.9983 0.911621 10.3622 1.59313 9.99054 2.42144C9.63713 3.209 9.54177 4.08691 9.71608 4.93003C9.7296 4.99545 9.6784 5.05721 9.61172 5.05307C8.02767 4.95469 6.47997 4.53336 5.06396 3.81446C3.65154 3.09739 2.40081 2.09983 1.38794 0.883296C1.34299 0.829305 1.25779 0.836293 1.22504 0.898445C0.909869 1.49651 0.744853 2.16311 0.745301 2.8406C0.744022 3.51498 0.909518 4.17922 1.22706 4.77416C1.54459 5.36911 2.00432 5.87631 2.5653 6.2506C1.97038 6.23441 1.38705 6.08734 0.85655 5.82067C0.788182 5.78631 0.706175 5.83524 0.709731 5.91167C0.7511 6.80091 1.07755 7.69364 1.64262 8.37857C2.24394 9.10744 3.07856 9.60624 4.0053 9.7906C3.64856 9.89917 3.27818 9.95641 2.9053 9.9606C2.70236 9.95823 2.49982 9.94325 2.29884 9.91578C2.22432 9.90559 2.16347 9.97637 2.18956 10.0469C2.46597 10.7944 2.9543 11.4467 3.59638 11.9228C4.28283 12.4318 5.11088 12.7142 5.9653 12.7306C4.5225 13.8659 2.74118 14.4855 0.905301 14.4906C0.716658 14.4912 0.528098 14.4851 0.339983 14.4723C0.233975 14.4651 0.18522 14.6063 0.276595 14.6605C2.06536 15.7221 4.10989 16.2831 6.1953 16.2806C7.73499 16.2966 9.26244 16.0056 10.6884 15.4247C12.1144 14.8437 13.4103 13.9845 14.5005 12.8971C15.5907 11.8097 16.4533 10.516 17.0379 9.09151C17.6225 7.66702 17.9173 6.14033 17.9053 4.6006V4.12077C17.9053 4.0892 17.9202 4.05951 17.9454 4.04048C18.6237 3.52834 19.2202 2.91691 19.715 2.22724Z" fill="white"/>
</svg>
